<svg width="111" height="21" viewBox="0 0 111 21" fill="none" xmlns="http://www.w3.org/2000/svg">
<path d="M0.761364 20V5.45455H5.67614C6.81724 5.45455 7.75 5.66051 8.47443 6.07244C9.2036 6.47964 9.74337 7.03125 10.0938 7.72727C10.4441 8.4233 10.6193 9.19981 10.6193 10.0568C10.6193 10.9138 10.4441 11.6927 10.0938 12.3935C9.74811 13.0942 9.21307 13.6529 8.48864 14.0696C7.7642 14.4815 6.83617 14.6875 5.70455 14.6875H2.18182V13.125H5.64773C6.42898 13.125 7.05634 12.9901 7.52983 12.7202C8.00331 12.4503 8.34659 12.0857 8.55966 11.6264C8.77746 11.1624 8.88636 10.6392 8.88636 10.0568C8.88636 9.47443 8.77746 8.9536 8.55966 8.49432C8.34659 8.03504 8.00095 7.67519 7.52273 7.41477C7.04451 7.14962 6.41004 7.01705 5.61932 7.01705H2.52273V20H0.761364ZM25.7294 12.7273C25.7294 14.2614 25.4524 15.5871 24.8984 16.7045C24.3445 17.822 23.5845 18.6837 22.6186 19.2898C21.6527 19.8958 20.5495 20.1989 19.3089 20.1989C18.0684 20.1989 16.9652 19.8958 15.9993 19.2898C15.0334 18.6837 14.2734 17.822 13.7195 16.7045C13.1655 15.5871 12.8885 14.2614 12.8885 12.7273C12.8885 11.1932 13.1655 9.86742 13.7195 8.75C14.2734 7.63258 15.0334 6.77083 15.9993 6.16477C16.9652 5.55871 18.0684 5.25568 19.3089 5.25568C20.5495 5.25568 21.6527 5.55871 22.6186 6.16477C23.5845 6.77083 24.3445 7.63258 24.8984 8.75C25.4524 9.86742 25.7294 11.1932 25.7294 12.7273ZM24.0249 12.7273C24.0249 11.4678 23.8142 10.4048 23.3928 9.53835C22.9761 8.67188 22.4103 8.0161 21.6953 7.57102C20.9851 7.12595 20.1896 6.90341 19.3089 6.90341C18.4283 6.90341 17.6304 7.12595 16.9155 7.57102C16.2053 8.0161 15.6394 8.67188 15.218 9.53835C14.8014 10.4048 14.593 11.4678 14.593 12.7273C14.593 13.9867 14.8014 15.0497 15.218 15.9162C15.6394 16.7827 16.2053 17.4384 16.9155 17.8835C17.6304 18.3286 18.4283 18.5511 19.3089 18.5511C20.1896 18.5511 20.9851 18.3286 21.6953 17.8835C22.4103 17.4384 22.9761 16.7827 23.3928 15.9162C23.8142 15.0497 24.0249 13.9867 24.0249 12.7273ZM28.6911 20V5.45455H33.6058C34.7422 5.45455 35.675 5.64867 36.4041 6.03693C37.1333 6.42045 37.6731 6.94839 38.0234 7.62074C38.3738 8.29309 38.549 9.05777 38.549 9.91477C38.549 10.7718 38.3738 11.5317 38.0234 12.1946C37.6731 12.8575 37.1357 13.3783 36.4112 13.7571C35.6868 14.1312 34.7611 14.3182 33.6342 14.3182H29.657V12.7273H33.5774C34.3539 12.7273 34.9789 12.6136 35.4524 12.3864C35.9306 12.1591 36.2763 11.8371 36.4893 11.4205C36.7071 10.9991 36.8161 10.4972 36.8161 9.91477C36.8161 9.33239 36.7071 8.82339 36.4893 8.38778C36.2715 7.95218 35.9235 7.616 35.4453 7.37926C34.9671 7.13778 34.335 7.01705 33.549 7.01705H30.4524V20H28.6911ZM35.5376 13.4659L39.1172 20H37.0717L33.549 13.4659H35.5376ZM40.6886 7.01705V5.45455H51.5977V7.01705H47.0238V20H45.2624V7.01705H40.6886ZM54.3161 20V5.45455H63.0376V7.01705H56.0774V11.9318H62.3842V13.4943H56.0774V20H54.3161ZM78.3271 12.7273C78.3271 14.2614 78.0501 15.5871 77.4961 16.7045C76.9421 17.822 76.1822 18.6837 75.2163 19.2898C74.2504 19.8958 73.1471 20.1989 71.9066 20.1989C70.6661 20.1989 69.5629 19.8958 68.5969 19.2898C67.631 18.6837 66.8711 17.822 66.3171 16.7045C65.7631 15.5871 65.4862 14.2614 65.4862 12.7273C65.4862 11.1932 65.7631 9.86742 66.3171 8.75C66.8711 7.63258 67.631 6.77083 68.5969 6.16477C69.5629 5.55871 70.6661 5.25568 71.9066 5.25568C73.1471 5.25568 74.2504 5.55871 75.2163 6.16477C76.1822 6.77083 76.9421 7.63258 77.4961 8.75C78.0501 9.86742 78.3271 11.1932 78.3271 12.7273ZM76.6225 12.7273C76.6225 11.4678 76.4118 10.4048 75.9904 9.53835C75.5737 8.67188 75.0079 8.0161 74.293 7.57102C73.5827 7.12595 72.7873 6.90341 71.9066 6.90341C71.0259 6.90341 70.2281 7.12595 69.5131 7.57102C68.8029 8.0161 68.2371 8.67188 67.8157 9.53835C67.399 10.4048 67.1907 11.4678 67.1907 12.7273C67.1907 13.9867 67.399 15.0497 67.8157 15.9162C68.2371 16.7827 68.8029 17.4384 69.5131 17.8835C70.2281 18.3286 71.0259 18.5511 71.9066 18.5511C72.7873 18.5511 73.5827 18.3286 74.293 17.8835C75.0079 17.4384 75.5737 16.7827 75.9904 15.9162C76.4118 15.0497 76.6225 13.9867 76.6225 12.7273ZM71.1396 3.97727L72.8725 0.681818H74.8327L72.6168 3.97727H71.1396ZM81.2887 20V5.45455H83.0501V18.4375H89.8114V20H81.2887ZM94.3001 5.45455V20H92.5387V5.45455H94.3001ZM110.104 12.7273C110.104 14.2614 109.827 15.5871 109.273 16.7045C108.719 17.822 107.96 18.6837 106.994 19.2898C106.028 19.8958 104.924 20.1989 103.684 20.1989C102.443 20.1989 101.34 19.8958 100.374 19.2898C99.4084 18.6837 98.6484 17.822 98.0945 16.7045C97.5405 15.5871 97.2635 14.2614 97.2635 12.7273C97.2635 11.1932 97.5405 9.86742 98.0945 8.75C98.6484 7.63258 99.4084 6.77083 100.374 6.16477C101.34 5.55871 102.443 5.25568 103.684 5.25568C104.924 5.25568 106.028 5.55871 106.994 6.16477C107.96 6.77083 108.719 7.63258 109.273 8.75C109.827 9.86742 110.104 11.1932 110.104 12.7273ZM108.4 12.7273C108.4 11.4678 108.189 10.4048 107.768 9.53835C107.351 8.67188 106.785 8.0161 106.07 7.57102C105.36 7.12595 104.565 6.90341 103.684 6.90341C102.803 6.90341 102.005 7.12595 101.29 7.57102C100.58 8.0161 100.014 8.67188 99.593 9.53835C99.1764 10.4048 98.968 11.4678 98.968 12.7273C98.968 13.9867 99.1764 15.0497 99.593 15.9162C100.014 16.7827 100.58 17.4384 101.29 17.8835C102.005 18.3286 102.803 18.5511 103.684 18.5511C104.565 18.5511 105.36 18.3286 106.07 17.8835C106.785 17.4384 107.351 16.7827 107.768 15.9162C108.189 15.0497 108.4 13.9867 108.4 12.7273Z" fill="white"/>
</svg>
